<?xml version="1.0" encoding="UTF-8" standalone="no"?>
<svg
   xmlns:dc="http://purl.org/dc/elements/1.1/"
   xmlns:cc="http://creativecommons.org/ns#"
   xmlns:rdf="http://www.w3.org/1999/02/22-rdf-syntax-ns#"
   xmlns:svg="http://www.w3.org/2000/svg"
   xmlns="http://www.w3.org/2000/svg"
   xmlns:sodipodi="http://sodipodi.sourceforge.net/DTD/sodipodi-0.dtd"
   xmlns:inkscape="http://www.inkscape.org/namespaces/inkscape"
   width="210mm"
   height="297mm"
   viewBox="0 0 210 297"
   version="1.1"
   id="svg8"
   sodipodi:docname="Simon, Viktor.svg"
   inkscape:version="1.0.2 (e86c870879, 2021-01-15, custom)">
  <defs
     id="defs2" />
  <sodipodi:namedview
     id="base"
     pagecolor="#ffffff"
     bordercolor="#666666"
     borderopacity="1.0"
     inkscape:pageopacity="0.0"
     inkscape:pageshadow="2"
     inkscape:zoom="0.35"
     inkscape:cx="976.42436"
     inkscape:cy="304.98041"
     inkscape:document-units="mm"
     inkscape:current-layer="panel3701"
     inkscape:document-rotation="0"
     showgrid="false"
     showborder="false"
     objecttolerance="1"
     guidetolerance="1"
     gridtolerance="1"
     inkscape:window-width="1920"
     inkscape:window-height="1001"
     inkscape:window-x="-9"
     inkscape:window-y="-9"
     inkscape:window-maximized="1" />
  <metadata
     id="metadata5">
    <rdf:RDF>
      <cc:Work
         rdf:about="">
        <dc:format>image/svg+xml</dc:format>
        <dc:type
           rdf:resource="http://purl.org/dc/dcmitype/StillImage" />
        <dc:title></dc:title>
      </cc:Work>
    </rdf:RDF>
  </metadata>
  <g
     inkscape:label="Layer 1"
     inkscape:groupmode="layer"
     id="layer1">
    <g
       id="panel2349"
       transform="translate(1.5119048,23.434524)">
      <path
         style="fill:none;stroke:#000000;stroke-width:1"
         d="m 38.2,158.5 h 10.005 v -3.1 h 10.19 v 3.1 h 9.91 v -3.1 h 10.19 v 3.1 h 9.91 v -3.1 h 10.19 v 3.1 h 9.91 v -3.1 h 10.19 v 3.1 h 9.91 v -3.1 h 10.19 v 3.1 h 9.91 v -3.1 h 10.19 v 3.1 h 9.91 v -3.1 h 10.19 v 3.1 h 9.91 v -3.1 h 10.19 v 3.1 h 9.91 v -3.1 h 10.19 v 3.1 h 9.91 v -3.1 h 10.19 v 3.1 h 9.91 v -3.1 h 10.19 v 3.1 H 269.4"
         id="path1016" />
      <path
         style="fill:none;stroke:#000000;stroke-width:1"
         d="m 269.4,158.5 v 10.095 h -3.1 v 9.81 h 3.1 V 188.5"
         id="path1018" />
      <path
         style="fill:none;stroke:#000000;stroke-width:1"
         d="m 269.4,188.5 h -10.005 v 3.1 h -10.19 v -3.1 h -9.91 v 3.1 h -10.19 v -3.1 h -9.91 v 3.1 h -10.19 v -3.1 h -9.91 v 3.1 h -10.19 v -3.1 h -9.91 v 3.1 h -10.19 v -3.1 h -9.91 v 3.1 h -10.19 v -3.1 h -9.91 v 3.1 h -10.19 v -3.1 h -9.91 v 3.1 h -10.19 v -3.1 h -9.91 v 3.1 h -10.19 v -3.1 h -9.91 v 3.1 h -10.19 v -3.1 h -9.91 v 3.1 h -10.19 v -3.1 H 38.2"
         id="path1020" />
      <path
         style="fill:none;stroke:#000000;stroke-width:1"
         d="m 38.2,188.5 v -10.095 h 3.1 v -9.81 H 38.2 V 158.5"
         id="path1022" />
    </g>
    <g
       id="panel5006"
       transform="translate(-32.505952,-3.0238095)">
      <path
         style="fill:none;stroke:#000000;stroke-width:1"
         d="m 4.1,41.3 h 9.905 v -3.1 h 10.19 v 3.1 H 34.1"
         id="path1025" />
      <path
         style="fill:none;stroke:#000000;stroke-width:1"
         d="m 34.1,41.3 v 7.8383 h 3.1 v 10.19 h -3.1 v 10.8434 h 3.1 v 10.19 H 34.1 V 91.205 h 3.1 v 10.19 h -3.1 v 10.843 h 3.1 v 10.19 h -3.1 v 10.844 h 3.1 v 10.19 h -3.1 v 7.838"
         id="path1027" />
      <path
         style="fill:none;stroke:#000000;stroke-width:1"
         d="m 34.1,151.3 h -9.905 v 3.1 h -10.19 v -3.1 H 4.1"
         id="path1029" />
      <path
         style="fill:none;stroke:#000000;stroke-width:1"
         d="m 4.1,151.3 v -7.838 H 1 v -10.19 H 4.1 V 122.428 H 1 v -10.19 H 4.1 V 101.395 H 1 V 91.205 H 4.1 V 80.3617 H 1 v -10.19 H 4.1 V 59.3283 H 1 v -10.19 H 4.1 V 41.3"
         id="path1031" />
    </g>
    <g
       id="panel57"
       transform="translate(3.0238095,-0.7559524)">
      <path
         style="fill:none;stroke:#000000;stroke-width:1"
         d="m 38.2,38.2 h 10.195 v 3.1 h 9.81 v -3.1 h 10.29 v 3.1 h 9.81 v -3.1 h 10.29 v 3.1 h 9.81 v -3.1 h 10.29 v 3.1 h 9.81 v -3.1 h 10.29 v 3.1 h 9.81 v -3.1 h 10.29 v 3.1 h 9.81 v -3.1 h 10.29 v 3.1 h 9.81 v -3.1 h 10.29 v 3.1 h 9.81 v -3.1 h 10.29 v 3.1 h 9.81 v -3.1 h 10.29 v 3.1 h 9.81 v -3.1 h 10.29 v 3.1 h 9.81 V 38.2 H 269.4"
         id="path1034" />
      <path
         style="fill:none;stroke:#000000;stroke-width:1"
         d="m 269.4,38.2 v 11.1283 h -3.1 v 9.81 h 3.1 v 11.2234 h -3.1 v 9.81 h 3.1 V 91.395 h -3.1 v 9.81 h 3.1 v 11.223 h -3.1 v 9.81 h 3.1 v 11.224 h -3.1 v 9.81 h 3.1 V 154.4"
         id="path1036" />
      <path
         style="fill:none;stroke:#000000;stroke-width:1"
         d="m 269.4,154.4 h -10.195 v -3.1 h -9.81 v 3.1 h -10.29 v -3.1 h -9.81 v 3.1 h -10.29 v -3.1 h -9.81 v 3.1 h -10.29 v -3.1 h -9.81 v 3.1 h -10.29 v -3.1 h -9.81 v 3.1 h -10.29 v -3.1 h -9.81 v 3.1 h -10.29 v -3.1 h -9.81 v 3.1 h -10.29 v -3.1 h -9.81 v 3.1 h -10.29 v -3.1 h -9.81 v 3.1 h -10.29 v -3.1 h -9.81 v 3.1 h -10.29 v -3.1 h -9.81 v 3.1 H 38.2"
         id="path1038" />
      <path
         style="fill:none;stroke:#000000;stroke-width:1"
         d="m 38.2,154.4 v -11.128 h 3.1 v -9.81 h -3.1 v -11.224 h 3.1 v -9.81 h -3.1 v -11.223 h 3.1 v -9.81 H 38.2 V 80.1717 h 3.1 v -9.81 H 38.2 V 59.1383 h 3.1 v -9.81 H 38.2 V 38.2"
         id="path1040" />
    </g>
    <g
       id="panel4733"
       transform="translate(22.678571,-3.0238095)">
      <path
         style="fill:none;stroke:#000000;stroke-width:1"
         d="m 273.5,41.3 h 9.905 v -3.1 h 10.19 v 3.1 h 9.905"
         id="path1043" />
      <path
         style="fill:none;stroke:#000000;stroke-width:1"
         d="m 303.5,41.3 v 7.8383 h 3.1 v 10.19 h -3.1 v 10.8434 h 3.1 v 10.19 h -3.1 V 91.205 h 3.1 v 10.19 h -3.1 v 10.843 h 3.1 v 10.19 h -3.1 v 10.844 h 3.1 v 10.19 h -3.1 v 7.838"
         id="path1045" />
      <path
         style="fill:none;stroke:#000000;stroke-width:1"
         d="m 303.5,151.3 h -9.905 v 3.1 h -10.19 v -3.1 H 273.5"
         id="path1047" />
      <path
         style="fill:none;stroke:#000000;stroke-width:1"
         d="m 273.5,151.3 v -7.838 h -3.1 v -10.19 h 3.1 v -10.844 h -3.1 v -10.19 h 3.1 v -10.843 h -3.1 v -10.19 h 3.1 V 80.3617 h -3.1 v -10.19 h 3.1 V 59.3283 h -3.1 v -10.19 h 3.1 V 41.3"
         id="path1049" />
    </g>
    <g
       id="panel3701"
       transform="translate(46.869048,0.75595238)">
      <path
         style="fill:none;stroke:#000000;stroke-width:1"
         d="m 307.6,38.2 h 10.195 v 3.1 h 9.81 v -3.1 h 10.29 v 3.1 h 9.81 v -3.1 h 10.29 v 3.1 h 9.81 v -3.1 h 10.29 v 3.1 h 9.81 v -3.1 h 10.29 v 3.1 h 9.81 v -3.1 h 10.29 v 3.1 h 9.81 v -3.1 h 10.29 v 3.1 h 9.81 v -3.1 h 10.29 v 3.1 h 9.81 v -3.1 h 10.29 v 3.1 h 9.81 v -3.1 h 10.29 v 3.1 h 9.81 v -3.1 h 10.29 v 3.1 h 9.81 V 38.2 H 538.8"
         id="path1052" />
      <path
         style="fill:none;stroke:#000000;stroke-width:1"
         d="m 538.8,38.2 v 11.1283 h -3.1 v 9.81 h 3.1 v 11.2234 h -3.1 v 9.81 h 3.1 V 91.395 h -3.1 v 9.81 h 3.1 v 11.223 h -3.1 v 9.81 h 3.1 v 11.224 h -3.1 v 9.81 h 14.81726 l 0,11.128"
         id="path1054"
         sodipodi:nodetypes="cccccccccccccccccccccc" />
      <path
         style="fill:none;stroke:#000000;stroke-width:1"
         d="m 550.89524,154.4 -22.29024,0 v -3.1 h -9.81 v 3.1 h -10.29 v -3.1 h -9.81 v 3.1 h -10.29 v -3.1 h -9.81 v 3.1 h -10.29 v -3.1 h -9.81 v 3.1 h -10.29 v -3.1 h -9.81 v 3.1 h -10.29 v -3.1 h -9.81 v 3.1 h -10.29 v -3.1 h -9.81 v 3.1 h -10.29 v -3.1 h -9.81 v 3.1 h -10.29 v -3.1 h -9.81 v 3.1 h -10.29 v -3.1 h -9.81 v 3.1 h -10.29 v -3.1 h -9.81 v 3.1 H 307.6"
         id="path1056"
         sodipodi:nodetypes="cccccccccccccccccccccccccccccccccccccccccccccc" />
      <path
         style="fill:none;stroke:#000000;stroke-width:1"
         d="m 307.6,154.4 v -11.128 h 3.1 v -9.81 h -3.1 v -11.224 h 3.1 v -9.81 h -3.1 v -11.223 h 3.1 v -9.81 h -3.1 V 80.1717 h 3.1 v -9.81 h -3.1 V 59.1383 h 3.1 v -9.81 h -3.1 V 38.2"
         id="path1058" />
      <g
         id="panel13"
         transform="translate(-291.04167,-204.8631)" />
      <g
         id="panel5051"
         transform="translate(-141.3631,-223.76191)" />
      <g
         id="panel9258">
        <path
           style="fill:none;stroke:#000000;stroke-width:1"
           d="M 3.1 232.9 L 13.005 232.9 L 13.005 232.9 L 23.195 232.9 L 23.195 232.9 L 33.1 232.9"
           id="path1199" />
        <path
           style="fill:none;stroke:#000000;stroke-width:1"
           d="M 33.1 232.9 L 33.1 240.738 L 33.1 240.738 L 33.1 250.928 L 33.1 250.928 L 33.1 261.772 L 33.1 261.772 L 33.1 271.962 L 33.1 271.962 L 33.1 282.805 L 33.1 282.805 L 33.1 292.995 L 33.1 292.995 L 33.1 303.838 L 33.1 303.838 L 33.1 314.028 L 33.1 314.028 L 33.1 324.872 L 33.1 324.872 L 33.1 335.062 L 33.1 335.062 L 33.1 342.9"
           id="path1201" />
        <path
           style="fill:none;stroke:#000000;stroke-width:1"
           d="M 33.1 342.9 L 23.195 342.9 L 23.195 342.9 L 13.005 342.9 L 13.005 342.9 L 3.1 342.9"
           id="path1203" />
        <path
           style="fill:none;stroke:#000000;stroke-width:1"
           d="M 3.1 342.9 L 3.1 335.062 L 3.1 335.062 L 3.1 324.872 L 3.1 324.872 L 3.1 314.028 L 3.1 314.028 L 3.1 303.838 L 3.1 303.838 L 3.1 292.995 L 3.1 292.995 L 3.1 282.805 L 3.1 282.805 L 3.1 271.962 L 3.1 271.962 L 3.1 261.772 L 3.1 261.772 L 3.1 250.928 L 3.1 250.928 L 3.1 240.738 L 3.1 240.738 L 3.1 232.9"
           id="path1205" />
      </g>
      <g
         id="panel7703"
         transform="translate(-117.92857,-229.05357)" />
      <g
         id="panel1112"
         transform="translate(-90.714286,-232.83333)" />
      <g
         id="panel7704"
         transform="translate(-101.90929,-221.89503)" />
      <g
         id="panel1817"
         transform="translate(191.25595,-151.19048)" />
      <g
         id="g1320"
         transform="matrix(0.3952381,0,0,0.78037321,10.94619,63.979884)"
         style="stroke-width:1.8006">
        <path
           style="fill:none;stroke:#000000;stroke-width:1.8006"
           d="m 3.1,232.9 h 9.905 v 0 h 10.19 v 0 H 33.1"
           id="path1312" />
        <path
           style="fill:none;stroke:#000000;stroke-width:1.8006"
           d="m 33.1,232.9 v 7.838 0 10.19 0 10.844 0 10.19 0 10.843 0 10.19 0 10.843 0 10.19 0 10.844 0 10.19 0 7.838"
           id="path1314" />
        <path
           style="fill:none;stroke:#000000;stroke-width:1.8006"
           d="m 33.1,342.9 h -9.905 v 0 h -10.19 v 0 H 3.1"
           id="path1316" />
        <path
           style="fill:none;stroke:#000000;stroke-width:1.8006"
           d="m 3.1,342.9 v -7.838 0 -10.19 0 -10.844 0 -10.19 0 -10.843 0 -10.19 0 -10.843 0 -10.19 0 -10.844 0 -10.19 0 -7.838"
           id="path1318" />
      </g>
    </g>
    <g
       id="panel3119"
       transform="translate(-3.7797619,-13.607143)">
      <path
         style="fill:none;stroke:#000000;stroke-width:1"
         d="M 38.2,4.1 H 48.205 V 1 h 10.19 v 3.1 h 9.91 V 1 h 10.19 v 3.1 h 9.91 V 1 h 10.19 v 3.1 h 9.91 V 1 h 10.19 v 3.1 h 9.91 V 1 h 10.19 v 3.1 h 9.91 V 1 h 10.19 v 3.1 h 9.91 V 1 h 10.19 v 3.1 h 9.91 V 1 h 10.19 v 3.1 h 9.91 V 1 h 10.19 v 3.1 h 9.91 V 1 h 10.19 v 3.1 h 9.91 V 1 h 10.19 V 4.1 H 269.4"
         id="path1061" />
      <path
         style="fill:none;stroke:#000000;stroke-width:1"
         d="m 269.4,4.1 v 10.095 h -3.1 v 9.81 h 3.1 V 34.1"
         id="path1063" />
      <path
         style="fill:none;stroke:#000000;stroke-width:1"
         d="m 269.4,34.1 h -10.005 v 3.1 h -10.19 v -3.1 h -9.91 v 3.1 h -10.19 v -3.1 h -9.91 v 3.1 h -10.19 v -3.1 h -9.91 v 3.1 h -10.19 v -3.1 h -9.91 v 3.1 h -10.19 v -3.1 h -9.91 v 3.1 h -10.19 v -3.1 h -9.91 v 3.1 h -10.19 v -3.1 h -9.91 v 3.1 h -10.19 v -3.1 h -9.91 v 3.1 h -10.19 v -3.1 h -9.91 v 3.1 h -10.19 v -3.1 h -9.91 v 3.1 H 48.205 V 34.1 H 38.2"
         id="path1065" />
      <path
         style="fill:none;stroke:#000000;stroke-width:1"
         d="M 38.2,34.1 V 24.005 h 3.1 v -9.81 H 38.2 V 4.1"
         id="path1067" />
    </g>
    <path
       id="path1102"
       style="fill:none;stroke:#000000;stroke-width:0.241618;stroke-opacity:1"
       d="M 68.892286,5.3523827 A 11.37919,11.37919 0 0 1 57.513096,16.731573 11.37919,11.37919 0 0 1 46.133905,5.3523827 11.37919,11.37919 0 0 1 57.513096,-6.0268078 11.37919,11.37919 0 0 1 68.892286,5.3523827 Z" />
    <path
       id="rect1108"
       style="fill:none;stroke:#000000;stroke-width:0.2;stroke-opacity:1"
       d="m 452.41336,72.334496 h 1.8 v 42.799994 h -1.8 z" />
    <path
       id="path1110"
       style="fill:none;stroke:#000000;stroke-width:0.2;stroke-opacity:1"
       transform="rotate(-90)"
       d="m -87.744738,482.97232 a 6.3999996,6.3999996 0 0 1 -6.399999,6.4 6.3999996,6.3999996 0 0 1 -6.400003,-6.4 6.3999996,6.3999996 0 0 1 6.400003,-6.4 6.3999996,6.3999996 0 0 1 6.399999,6.4 z" />
    <g
       aria-label="Viktor Frans"
       id="text1114"
       style="font-style:normal;font-variant:normal;font-weight:normal;font-stretch:normal;font-size:10.5833px;line-height:1.25;font-family:'Bauhaus 93';-inkscape-font-specification:'Bauhaus 93, Normal';font-variant-ligatures:normal;font-variant-caps:normal;font-variant-numeric:normal;font-variant-east-asian:normal;fill:#ff0000;fill-opacity:1;stroke:none;stroke-width:0.264583">
      <path
         d="m 57.182154,194.78547 -3.074738,7.45688 -3.054068,-7.45688 h 2.428785 l 0.645953,2.20141 0.713133,-2.20141 z"
         style="font-style:normal;font-variant:normal;font-weight:normal;font-stretch:normal;font-size:10.5833px;font-family:'Bauhaus 93';-inkscape-font-specification:'Bauhaus 93, Normal';font-variant-ligatures:normal;font-variant-caps:normal;font-variant-numeric:normal;font-variant-east-asian:normal;fill:#ff0000;fill-opacity:1;stroke-width:0.264583"
         id="path1125" />
      <path
         d="m 59.430072,196.68716 v 5.15212 h -1.932693 v -5.15212 z m -0.961179,-2.2996 q 0.39274,0 0.676959,0.27905 0.289387,0.27389 0.289387,0.65112 0,0.40308 -0.273884,0.66146 -0.268717,0.25838 -0.692462,0.25838 -0.423745,0 -0.69763,-0.25838 -0.268716,-0.25838 -0.268716,-0.66146 0,-0.37723 0.284219,-0.65112 0.289387,-0.27905 0.682127,-0.27905 z"
         style="font-style:normal;font-variant:normal;font-weight:normal;font-stretch:normal;font-size:10.5833px;font-family:'Bauhaus 93';-inkscape-font-specification:'Bauhaus 93, Normal';font-variant-ligatures:normal;font-variant-caps:normal;font-variant-numeric:normal;font-variant-east-asian:normal;fill:#ff0000;fill-opacity:1;stroke-width:0.264583"
         id="path1127" />
      <path
         d="m 62.499642,194.78547 v 7.05381 H 60.56695 v -7.05381 z m 2.96105,1.90169 -0.945676,1.87584 1.405595,3.27628 h -2.139398 l -1.209224,-3.36413 0.878496,-1.78799 z"
         style="font-style:normal;font-variant:normal;font-weight:normal;font-stretch:normal;font-size:10.5833px;font-family:'Bauhaus 93';-inkscape-font-specification:'Bauhaus 93, Normal';font-variant-ligatures:normal;font-variant-caps:normal;font-variant-numeric:normal;font-variant-east-asian:normal;fill:#ff0000;fill-opacity:1;stroke-width:0.264583"
         id="path1129" />
      <path
         d="m 67.992829,194.78547 v 1.97403 h 0.868162 v 2.04121 h -0.868162 q 0,0.61495 0.191203,0.8475 0.196369,0.23254 0.713132,0.23254 v 2.03088 q -0.149861,0.005 -0.222208,0.005 -0.656289,0 -1.24023,-0.30489 -0.578775,-0.30489 -0.930173,-0.82682 -0.444416,-0.66662 -0.444416,-1.76733 v -4.23228 z"
         style="font-style:normal;font-variant:normal;font-weight:normal;font-stretch:normal;font-size:10.5833px;font-family:'Bauhaus 93';-inkscape-font-specification:'Bauhaus 93, Normal';font-variant-ligatures:normal;font-variant-caps:normal;font-variant-numeric:normal;font-variant-east-asian:normal;fill:#ff0000;fill-opacity:1;stroke-width:0.264583"
         id="path1131" />
      <path
         d="m 72.256121,196.57864 q 1.095537,0 1.875848,0.79064 0.785479,0.78548 0.785479,1.88619 0,1.1162 -0.795814,1.90168 -0.790647,0.78548 -1.912022,0.78548 -1.121375,0 -1.91719,-0.78548 -0.795814,-0.79064 -0.795814,-1.90168 0,-1.13171 0.795814,-1.90169 0.795815,-0.77514 1.963699,-0.77514 z m -0.05168,1.90685 q -0.310057,0 -0.527098,0.22737 -0.21704,0.22221 -0.21704,0.54777 0,0.3204 0.21704,0.54777 0.222208,0.22738 0.527098,0.22738 0.310058,0 0.527098,-0.22738 0.222208,-0.22737 0.222208,-0.54777 0,-0.32556 -0.21704,-0.54777 -0.21704,-0.22737 -0.532266,-0.22737 z"
         style="font-style:normal;font-variant:normal;font-weight:normal;font-stretch:normal;font-size:10.5833px;font-family:'Bauhaus 93';-inkscape-font-specification:'Bauhaus 93, Normal';font-variant-ligatures:normal;font-variant-caps:normal;font-variant-numeric:normal;font-variant-east-asian:normal;fill:#ff0000;fill-opacity:1;stroke-width:0.264583"
         id="path1133" />
      <path
         d="m 78.550291,196.63548 v 2.06705 q -0.201537,-0.11369 -0.366901,-0.11369 -0.527098,0 -0.527098,0.80615 v 2.44429 h -1.932693 v -2.81636 q 0,-1.1162 0.60978,-1.77766 0.60978,-0.66662 1.627803,-0.66662 0.227375,0 0.589109,0.0568 z"
         style="font-style:normal;font-variant:normal;font-weight:normal;font-stretch:normal;font-size:10.5833px;font-family:'Bauhaus 93';-inkscape-font-specification:'Bauhaus 93, Normal';font-variant-ligatures:normal;font-variant-caps:normal;font-variant-numeric:normal;font-variant-east-asian:normal;fill:#ff0000;fill-opacity:1;stroke-width:0.264583"
         id="path1135" />
      <path
         d="m 84.56024,198.10825 v 1.89135 h -0.69763 v 1.83968 h -2.098056 v -4.37698 q 0,-1.23506 0.759641,-2.04121 0.764809,-0.81132 1.922357,-0.81132 1.276404,0 2.13423,1.1007 l -1.72082,1.25574 q -0.144693,-0.40308 -0.511595,-0.40308 -0.485757,0 -0.485757,0.67179 v 0.87333 z"
         style="font-style:normal;font-variant:normal;font-weight:normal;font-stretch:normal;font-size:10.5833px;font-family:'Bauhaus 93';-inkscape-font-specification:'Bauhaus 93, Normal';font-variant-ligatures:normal;font-variant-caps:normal;font-variant-numeric:normal;font-variant-east-asian:normal;fill:#ff0000;fill-opacity:1;stroke-width:0.264583"
         id="path1137" />
      <path
         d="m 89.686525,196.63548 v 2.06705 q -0.201537,-0.11369 -0.366901,-0.11369 -0.527098,0 -0.527098,0.80615 v 2.44429 h -1.932692 v -2.81636 q 0,-1.1162 0.609779,-1.77766 0.60978,-0.66662 1.627803,-0.66662 0.227375,0 0.589109,0.0568 z"
         style="font-style:normal;font-variant:normal;font-weight:normal;font-stretch:normal;font-size:10.5833px;font-family:'Bauhaus 93';-inkscape-font-specification:'Bauhaus 93, Normal';font-variant-ligatures:normal;font-variant-caps:normal;font-variant-numeric:normal;font-variant-east-asian:normal;fill:#ff0000;fill-opacity:1;stroke-width:0.264583"
         id="path1139" />
      <path
         d="m 93.117833,199.90659 v 1.99987 q -0.237711,0.0413 -0.434081,0.0413 -1.162716,0 -1.93786,-0.76481 -0.775144,-0.76481 -0.775144,-1.91719 0,-1.12137 0.780312,-1.90169 0.785479,-0.78031 1.906854,-0.78031 1.250566,0 1.968866,0.73381 0.723467,0.72863 0.723467,1.9947 v 2.52697 h -1.932692 v -2.38744 q 0,-0.40825 -0.201537,-0.65113 -0.19637,-0.24287 -0.532266,-0.24287 -0.30489,0 -0.527098,0.2222 -0.222208,0.22221 -0.222208,0.5271 0,0.32039 0.201538,0.5271 0.201537,0.20671 0.511595,0.20671 0.253213,0 0.470254,-0.13436 z"
         style="font-style:normal;font-variant:normal;font-weight:normal;font-stretch:normal;font-size:10.5833px;font-family:'Bauhaus 93';-inkscape-font-specification:'Bauhaus 93, Normal';font-variant-ligatures:normal;font-variant-caps:normal;font-variant-numeric:normal;font-variant-east-asian:normal;fill:#ff0000;fill-opacity:1;stroke-width:0.264583"
         id="path1141" />
      <path
         d="m 101.07081,201.83928 h -1.932694 v -2.90937 q 0,-0.44442 -0.366901,-0.44442 -0.361734,0 -0.361734,0.44442 v 2.90937 h -1.932693 v -2.8732 q 0,-1.00769 0.666624,-1.69498 0.666624,-0.69246 1.63297,-0.69246 1.105872,0 1.772498,0.80098 0.52193,0.62528 0.52193,1.74149 z"
         style="font-style:normal;font-variant:normal;font-weight:normal;font-stretch:normal;font-size:10.5833px;font-family:'Bauhaus 93';-inkscape-font-specification:'Bauhaus 93, Normal';font-variant-ligatures:normal;font-variant-caps:normal;font-variant-numeric:normal;font-variant-east-asian:normal;fill:#ff0000;fill-opacity:1;stroke-width:0.264583"
         id="path1143" />
      <path
         d="m 105.42712,196.7595 v 2.03605 q -0.40825,0 -0.56327,0.15503 -0.14987,0.14986 -0.19121,0.59944 -0.13435,1.49344 -1.15754,2.10839 -0.54261,0.3204 -1.53996,0.3204 h -0.26871 v -2.04639 h 0.0879 q 0.46508,0 0.66145,-0.1912 0.20154,-0.19637 0.23254,-0.68212 0.0413,-0.79065 0.1447,-1.11104 0.10852,-0.3204 0.43408,-0.63562 0.56844,-0.55294 1.57613,-0.55294 z"
         style="font-style:normal;font-variant:normal;font-weight:normal;font-stretch:normal;font-size:10.5833px;font-family:'Bauhaus 93';-inkscape-font-specification:'Bauhaus 93, Normal';font-variant-ligatures:normal;font-variant-caps:normal;font-variant-numeric:normal;font-variant-east-asian:normal;fill:#ff0000;fill-opacity:1;stroke-width:0.264583"
         id="path1145" />
    </g>
    <path
       id="rect1116"
       style="fill:none;fill-opacity:1;stroke:#000000;stroke-width:0.199999;stroke-opacity:1"
       d="m 510.64587,98.547623 h 19.80001 v 19.799997 h -19.80001 z" />
    <path
       id="rect1118"
       style="fill:none;fill-opacity:1;stroke:#000000;stroke-width:0.199999;stroke-opacity:1"
       d="m 540.64587,69.547623 h 19.80001 v 19.800001 h -19.80001 z" />
    <path
       id="rect1120"
       style="fill:none;fill-opacity:1;stroke:#000000;stroke-width:0.199999;stroke-opacity:1"
       d="m 540.64587,98.547623 h 19.80001 v 19.799997 h -19.80001 z" />
    <path
       id="rect1122"
       style="fill:none;fill-opacity:1;stroke:#000000;stroke-width:0.199999;stroke-opacity:1"
       d="m 510.64587,69.547623 h 19.80001 v 19.800001 h -19.80001 z" />
  </g>
</svg>
